<?xml version="1.0" encoding="utf-8"?>
<!-- Generator: Adobe Illustrator 25.2.1, SVG Export Plug-In . SVG Version: 6.00 Build 0)  -->
<svg version="1.1"
	 id="Layer_1" xmlns:cc="http://creativecommons.org/ns#" xmlns:dc="http://purl.org/dc/elements/1.1/" xmlns:inkscape="http://www.inkscape.org/namespaces/inkscape" xmlns:rdf="http://www.w3.org/1999/02/22-rdf-syntax-ns#" xmlns:svg="http://www.w3.org/2000/svg"
	 xmlns="http://www.w3.org/2000/svg" xmlns:xlink="http://www.w3.org/1999/xlink" x="0px" y="0px" viewBox="0 0 936 609"
	 style="enable-background:new 0 0 936 609;" xml:space="preserve">
<style type="text/css">
	.st0{fill:none;stroke:#000000;stroke-width:0.5669;stroke-linecap:round;stroke-linejoin:round;stroke-miterlimit:11.3386;}
</style>
<g id="p-1">
	<path class="st0" d="M-935.9,296h22.7c0.2,0,0.3-0.1,0.3-0.3v-8.2c0-0.3-0.3,0,0,0h16.4c0.3,0,0-0.3,0,0v8.2c0,0.2,0.1,0.3,0.3,0.3
		h17c0.2,0,0.3-0.1,0.3-0.3v-8.2c0-0.3-0.3,0,0,0h16.4c0.3,0,0-0.3,0,0v8.2c0,0.2,0.1,0.3,0.3,0.3h17c0.2,0,0.3-0.1,0.3-0.3v-8.2
		c0-0.3-0.3,0,0,0h16.4c0.3,0,0-0.3,0,0v8.2c0,0.2,0.1,0.3,0.3,0.3h17c0.2,0,0.3-0.1,0.3-0.3v-8.2c0-0.3-0.3,0,0,0h16.4
		c0.3,0,0-0.3,0,0v8.2c0,0.2,0.1,0.3,0.3,0.3h17c0.2,0,0.3-0.1,0.3-0.3v-8.2c0-0.3-0.3,0,0,0h16.4c0.3,0,0-0.3,0,0v8.2
		c0,0.2,0.1,0.3,0.3,0.3h17c0.2,0,0.3-0.1,0.3-0.3v-8.2c0-0.3-0.3,0,0,0h16.4c0.3,0,0-0.3,0,0v8.2c0,0.2,0.1,0.3,0.3,0.3h17
		c0.2,0,0.3-0.1,0.3-0.3v-8.2c0-0.3-0.3,0,0,0h16.4c0.3,0,0-0.3,0,0v8.2c0,0.2,0.1,0.3,0.3,0.3h22.7h8.5c0.2,0,0.3-0.1,0.3-0.3v-8.5
		v-22.7c0-0.2-0.1-0.3-0.3-0.3h-8.2c-0.3,0,0,0.3,0,0v-16.4c0-0.3-0.3,0,0,0h8.2c0.2,0,0.3-0.1,0.3-0.3v-17c0-0.2-0.1-0.3-0.3-0.3
		h-8.2c-0.3,0,0,0.3,0,0v-16.4c0-0.3-0.3,0,0,0h8.2c0.2,0,0.3-0.1,0.3-0.3v-17c0-0.2-0.1-0.3-0.3-0.3h-8.2c-0.3,0,0,0.3,0,0v-16.4
		c0-0.3-0.3,0,0,0h8.2c0.2,0,0.3-0.1,0.3-0.3v-17c0-0.2-0.1-0.3-0.3-0.3h-8.2c-0.3,0,0,0.3,0,0v-16.4c0-0.3-0.3,0,0,0h8.2
		c0.2,0,0.3-0.1,0.3-0.3v-17c0-0.2-0.1-0.3-0.3-0.3h-8.2c-0.3,0,0,0.3,0,0v-16.4c0-0.3-0.3,0,0,0h8.2c0.2,0,0.3-0.1,0.3-0.3v-17
		c0-0.2-0.1-0.3-0.3-0.3h-8.2c-0.3,0,0,0.3,0,0V77.8c0-0.3-0.3,0,0,0h8.2c0.2,0,0.3-0.1,0.3-0.3v-17c0-0.2-0.1-0.3-0.3-0.3h-8.2
		c-0.3,0,0,0.3,0,0V43.7c0-0.3-0.3,0,0,0h8.2c0.2,0,0.3-0.1,0.3-0.3V20.8v-8.5c0-0.2-0.1-0.3-0.3-0.3h-8.5h-22.7
		c-0.2,0-0.3,0.1-0.3,0.3v8.2c0,0.3,0.3,0,0,0h-16.4c-0.3,0,0,0.3,0,0v-8.2c0-0.2-0.1-0.3-0.3-0.3h-17c-0.2,0-0.3,0.1-0.3,0.3v8.2
		c0,0.3,0.3,0,0,0h-16.4c-0.3,0,0,0.3,0,0v-8.2c0-0.2-0.1-0.3-0.3-0.3h-17c-0.2,0-0.3,0.1-0.3,0.3v8.2c0,0.3,0.3,0,0,0h-16.4
		c-0.3,0,0,0.3,0,0v-8.2c0-0.2-0.1-0.3-0.3-0.3h-17c-0.2,0-0.3,0.1-0.3,0.3v8.2c0,0.3,0.3,0,0,0h-16.4c-0.3,0,0,0.3,0,0v-8.2
		c0-0.2-0.1-0.3-0.3-0.3h-17c-0.2,0-0.3,0.1-0.3,0.3v8.2c0,0.3,0.3,0,0,0h-16.4c-0.3,0,0,0.3,0,0v-8.2c0-0.2-0.1-0.3-0.3-0.3h-17
		c-0.2,0-0.3,0.1-0.3,0.3v8.2c0,0.3,0.3,0,0,0h-16.4c-0.3,0,0,0.3,0,0v-8.2c0-0.2-0.1-0.3-0.3-0.3h-17c-0.2,0-0.3,0.1-0.3,0.3v8.2
		c0,0.3,0.3,0,0,0h-16.4c-0.3,0,0,0.3,0,0v-8.2c0-0.2-0.1-0.3-0.3-0.3h-22.7h-8.5c-0.2,0-0.3,0.1-0.3,0.3v8.5v22.7
		c0,0.2,0.1,0.3,0.3,0.3h8.2c0.3,0,0-0.3,0,0v16.4c0,0.3,0.3,0,0,0h-8.2c-0.2,0-0.3,0.1-0.3,0.3v17c0,0.2,0.1,0.3,0.3,0.3h8.2
		c0.3,0,0-0.3,0,0v16.4c0,0.3,0.3,0,0,0h-8.2c-0.2,0-0.3,0.1-0.3,0.3v17c0,0.2,0.1,0.3,0.3,0.3h8.2c0.3,0,0-0.3,0,0v16.4
		c0,0.3,0.3,0,0,0h-8.2c-0.2,0-0.3,0.1-0.3,0.3v17c0,0.2,0.1,0.3,0.3,0.3h8.2c0.3,0,0-0.3,0,0v16.4c0,0.3,0.3,0,0,0h-8.2
		c-0.2,0-0.3,0.1-0.3,0.3v17c0,0.2,0.1,0.3,0.3,0.3h8.2c0.3,0,0-0.3,0,0v16.4c0,0.3,0.3,0,0,0h-8.2c-0.2,0-0.3,0.1-0.3,0.3v17
		c0,0.2,0.1,0.3,0.3,0.3h8.2c0.3,0,0-0.3,0,0v16.4c0,0.3,0.3,0,0,0h-8.2c-0.2,0-0.3,0.1-0.3,0.3v17c0,0.2,0.1,0.3,0.3,0.3h8.2
		c0.3,0,0-0.3,0,0v16.4c0,0.3,0.3,0,0,0h-8.2c-0.2,0-0.3,0.1-0.3,0.3v22.7v8.5c0,0.2,0.1,0.3,0.3,0.3H-935.9z"/>
</g>
<g id="p-2">
	<path class="st0" d="M-309,600.7h22.7c0.2,0,0.3-0.1,0.3-0.3v-8.2c0-0.3-0.3,0,0,0h16.4c0.3,0,0-0.3,0,0v8.2c0,0.2,0.1,0.3,0.3,0.3
		h17c0.2,0,0.3-0.1,0.3-0.3v-8.2c0-0.3-0.3,0,0,0h16.4c0.3,0,0-0.3,0,0v8.2c0,0.2,0.1,0.3,0.3,0.3h17c0.2,0,0.3-0.1,0.3-0.3v-8.2
		c0-0.3-0.3,0,0,0h16.4c0.3,0,0-0.3,0,0v8.2c0,0.2,0.1,0.3,0.3,0.3h17c0.2,0,0.3-0.1,0.3-0.3v-8.2c0-0.3-0.3,0,0,0h16.4
		c0.3,0,0-0.3,0,0v8.2c0,0.2,0.1,0.3,0.3,0.3h17c0.2,0,0.3-0.1,0.3-0.3v-8.2c0-0.3-0.3,0,0,0h16.4c0.3,0,0-0.3,0,0v8.2
		c0,0.2,0.1,0.3,0.3,0.3h17c0.2,0,0.3-0.1,0.3-0.3v-8.2c0-0.3-0.3,0,0,0h16.4c0.3,0,0-0.3,0,0v8.2c0,0.2,0.1,0.3,0.3,0.3h17
		c0.2,0,0.3-0.1,0.3-0.3v-8.2c0-0.3-0.3,0,0,0h16.4c0.3,0,0-0.3,0,0v8.2c0,0.2,0.1,0.3,0.3,0.3h22.7c0.2,0,0.3-0.1,0.3-0.3v-8.5
		v-22.4c0-0.3-0.3,0,0,0h8.2c0.2,0,0.3-0.1,0.3-0.3v-17c0-0.2-0.1-0.3-0.3-0.3h-8.2c-0.3,0,0,0.3,0,0v-16.4c0-0.3-0.3,0,0,0h8.2
		c0.2,0,0.3-0.1,0.3-0.3v-17c0-0.2-0.1-0.3-0.3-0.3h-8.2c-0.3,0,0,0.3,0,0v-16.4c0-0.3-0.3,0,0,0h8.2c0.2,0,0.3-0.1,0.3-0.3v-17
		c0-0.2-0.1-0.3-0.3-0.3h-8.2c-0.3,0,0,0.3,0,0v-16.4c0-0.3-0.3,0,0,0h8.2c0.2,0,0.3-0.1,0.3-0.3v-17c0-0.2-0.1-0.3-0.3-0.3h-8.2
		c-0.3,0,0,0.3,0,0v-16.4c0-0.3-0.3,0,0,0h8.2c0.2,0,0.3-0.1,0.3-0.3v-17c0-0.2-0.1-0.3-0.3-0.3h-8.2c-0.3,0,0,0.3,0,0v-16.4
		c0-0.3-0.3,0,0,0h8.2c0.2,0,0.3-0.1,0.3-0.3v-17c0-0.2-0.1-0.3-0.3-0.3h-8.2c-0.3,0,0,0.3,0,0v-16.4c0-0.3-0.3,0,0,0h8.2
		c0.2,0,0.3-0.1,0.3-0.3v-17c0-0.2-0.1-0.3-0.3-0.3h-8.2c-0.3,0,0,0.3,0,0v-22.4v-8.5c0-0.2-0.1-0.3-0.3-0.3h-22.7
		c-0.2,0-0.3,0.1-0.3,0.3v8.2c0,0.3,0.3,0,0,0H-82c-0.3,0,0,0.3,0,0v-8.2c0-0.2-0.1-0.3-0.3-0.3h-17c-0.2,0-0.3,0.1-0.3,0.3v8.2
		c0,0.3,0.3,0,0,0H-116c-0.3,0,0,0.3,0,0v-8.2c0-0.2-0.1-0.3-0.3-0.3h-17c-0.2,0-0.3,0.1-0.3,0.3v8.2c0,0.3,0.3,0,0,0H-150
		c-0.3,0,0,0.3,0,0v-8.2c0-0.2-0.1-0.3-0.3-0.3h-17c-0.2,0-0.3,0.1-0.3,0.3v8.2c0,0.3,0.3,0,0,0H-184c-0.3,0,0,0.3,0,0v-8.2
		c0-0.2-0.1-0.3-0.3-0.3h-17c-0.2,0-0.3,0.1-0.3,0.3v8.2c0,0.3,0.3,0,0,0h-16.4c-0.3,0,0,0.3,0,0v-8.2c0-0.2-0.1-0.3-0.3-0.3h-17
		c-0.2,0-0.3,0.1-0.3,0.3v8.2c0,0.3,0.3,0,0,0h-16.4c-0.3,0,0,0.3,0,0v-8.2c0-0.2-0.1-0.3-0.3-0.3h-17c-0.2,0-0.3,0.1-0.3,0.3v8.2
		c0,0.3,0.3,0,0,0h-16.4c-0.3,0,0,0.3,0,0v-8.2c0-0.2-0.1-0.3-0.3-0.3H-309c-0.2,0-0.3,0.1-0.3,0.3v8.5v22.4c0,0.3,0.3,0,0,0h-8.2
		c-0.2,0-0.3,0.1-0.3,0.3v17c0,0.2,0.1,0.3,0.3,0.3h8.2c0.3,0,0-0.3,0,0v16.4c0,0.3,0.3,0,0,0h-8.2c-0.2,0-0.3,0.1-0.3,0.3v17
		c0,0.2,0.1,0.3,0.3,0.3h8.2c0.3,0,0-0.3,0,0v16.4c0,0.3,0.3,0,0,0h-8.2c-0.2,0-0.3,0.1-0.3,0.3v17c0,0.2,0.1,0.3,0.3,0.3h8.2
		c0.3,0,0-0.3,0,0v16.4c0,0.3,0.3,0,0,0h-8.2c-0.2,0-0.3,0.1-0.3,0.3v17c0,0.2,0.1,0.3,0.3,0.3h8.2c0.3,0,0-0.3,0,0v16.4
		c0,0.3,0.3,0,0,0h-8.2c-0.2,0-0.3,0.1-0.3,0.3v17c0,0.2,0.1,0.3,0.3,0.3h8.2c0.3,0,0-0.3,0,0v16.4c0,0.3,0.3,0,0,0h-8.2
		c-0.2,0-0.3,0.1-0.3,0.3v17c0,0.2,0.1,0.3,0.3,0.3h8.2c0.3,0,0-0.3,0,0v16.4c0,0.3,0.3,0,0,0h-8.2c-0.2,0-0.3,0.1-0.3,0.3v17
		c0,0.2,0.1,0.3,0.3,0.3h8.2c0.3,0,0-0.3,0,0v22.4v8.5C-309.3,600.5-309.2,600.7-309,600.7z"/>
</g>
<g id="p-3">
	<path class="st0" d="M-622.5,600.7h22.7c0.2,0,0.3-0.1,0.3-0.3v-8.2c0-0.3-0.3,0,0,0h16.4c0.3,0,0-0.3,0,0v8.2
		c0,0.2,0.1,0.3,0.3,0.3h17c0.2,0,0.3-0.1,0.3-0.3v-8.2c0-0.3-0.3,0,0,0h16.4c0.3,0,0-0.3,0,0v8.2c0,0.2,0.1,0.3,0.3,0.3h17
		c0.2,0,0.3-0.1,0.3-0.3v-8.2c0-0.3-0.3,0,0,0h16.4c0.3,0,0-0.3,0,0v8.2c0,0.2,0.1,0.3,0.3,0.3h17c0.2,0,0.3-0.1,0.3-0.3v-8.2
		c0-0.3-0.3,0,0,0h16.4c0.3,0,0-0.3,0,0v8.2c0,0.2,0.1,0.3,0.3,0.3h17c0.2,0,0.3-0.1,0.3-0.3v-8.2c0-0.3-0.3,0,0,0h16.4
		c0.3,0,0-0.3,0,0v8.2c0,0.2,0.1,0.3,0.3,0.3h17c0.2,0,0.3-0.1,0.3-0.3v-8.2c0-0.3-0.3,0,0,0h16.4c0.3,0,0-0.3,0,0v8.2
		c0,0.2,0.1,0.3,0.3,0.3h17c0.2,0,0.3-0.1,0.3-0.3v-8.2c0-0.3-0.3,0,0,0h16.4c0.3,0,0-0.3,0,0v8.2c0,0.2,0.1,0.3,0.3,0.3h22.7
		c0.2,0,0.3-0.1,0.3-0.3v-8.5v-22.4c0-0.3-0.3,0,0,0h8.2c0.2,0,0.3-0.1,0.3-0.3v-17c0-0.2-0.1-0.3-0.3-0.3h-8.2c-0.3,0,0,0.3,0,0
		v-16.4c0-0.3-0.3,0,0,0h8.2c0.2,0,0.3-0.1,0.3-0.3v-17c0-0.2-0.1-0.3-0.3-0.3h-8.2c-0.3,0,0,0.3,0,0v-16.4c0-0.3-0.3,0,0,0h8.2
		c0.2,0,0.3-0.1,0.3-0.3v-17c0-0.2-0.1-0.3-0.3-0.3h-8.2c-0.3,0,0,0.3,0,0v-16.4c0-0.3-0.3,0,0,0h8.2c0.2,0,0.3-0.1,0.3-0.3v-17
		c0-0.2-0.1-0.3-0.3-0.3h-8.2c-0.3,0,0,0.3,0,0v-16.4c0-0.3-0.3,0,0,0h8.2c0.2,0,0.3-0.1,0.3-0.3v-17c0-0.2-0.1-0.3-0.3-0.3h-8.2
		c-0.3,0,0,0.3,0,0v-16.4c0-0.3-0.3,0,0,0h8.2c0.2,0,0.3-0.1,0.3-0.3v-17c0-0.2-0.1-0.3-0.3-0.3h-8.2c-0.3,0,0,0.3,0,0v-16.4
		c0-0.3-0.3,0,0,0h8.2c0.2,0,0.3-0.1,0.3-0.3v-17c0-0.2-0.1-0.3-0.3-0.3h-8.2c-0.3,0,0,0.3,0,0v-22.4v-8.5c0-0.2-0.1-0.3-0.3-0.3
		h-22.7c-0.2,0-0.3,0.1-0.3,0.3v8.2c0,0.3,0.3,0,0,0h-16.4c-0.3,0,0,0.3,0,0v-8.2c0-0.2-0.1-0.3-0.3-0.3h-17c-0.2,0-0.3,0.1-0.3,0.3
		v8.2c0,0.3,0.3,0,0,0h-16.4c-0.3,0,0,0.3,0,0v-8.2c0-0.2-0.1-0.3-0.3-0.3h-17c-0.2,0-0.3,0.1-0.3,0.3v8.2c0,0.3,0.3,0,0,0h-16.4
		c-0.3,0,0,0.3,0,0v-8.2c0-0.2-0.1-0.3-0.3-0.3h-17c-0.2,0-0.3,0.1-0.3,0.3v8.2c0,0.3,0.3,0,0,0h-16.4c-0.3,0,0,0.3,0,0v-8.2
		c0-0.2-0.1-0.3-0.3-0.3h-17c-0.2,0-0.3,0.1-0.3,0.3v8.2c0,0.3,0.3,0,0,0h-16.4c-0.3,0,0,0.3,0,0v-8.2c0-0.2-0.1-0.3-0.3-0.3h-17
		c-0.2,0-0.3,0.1-0.3,0.3v8.2c0,0.3,0.3,0,0,0h-16.4c-0.3,0,0,0.3,0,0v-8.2c0-0.2-0.1-0.3-0.3-0.3h-17c-0.2,0-0.3,0.1-0.3,0.3v8.2
		c0,0.3,0.3,0,0,0h-16.4c-0.3,0,0,0.3,0,0v-8.2c0-0.2-0.1-0.3-0.3-0.3h-22.7c-0.2,0-0.3,0.1-0.3,0.3v8.5v22.4c0,0.3,0.3,0,0,0h-8.2
		c-0.2,0-0.3,0.1-0.3,0.3v17c0,0.2,0.1,0.3,0.3,0.3h8.2c0.3,0,0-0.3,0,0v16.4c0,0.3,0.3,0,0,0h-8.2c-0.2,0-0.3,0.1-0.3,0.3v17
		c0,0.2,0.1,0.3,0.3,0.3h8.2c0.3,0,0-0.3,0,0v16.4c0,0.3,0.3,0,0,0h-8.2c-0.2,0-0.3,0.1-0.3,0.3v17c0,0.2,0.1,0.3,0.3,0.3h8.2
		c0.3,0,0-0.3,0,0v16.4c0,0.3,0.3,0,0,0h-8.2c-0.2,0-0.3,0.1-0.3,0.3v17c0,0.2,0.1,0.3,0.3,0.3h8.2c0.3,0,0-0.3,0,0v16.4
		c0,0.3,0.3,0,0,0h-8.2c-0.2,0-0.3,0.1-0.3,0.3v17c0,0.2,0.1,0.3,0.3,0.3h8.2c0.3,0,0-0.3,0,0v16.4c0,0.3,0.3,0,0,0h-8.2
		c-0.2,0-0.3,0.1-0.3,0.3v17c0,0.2,0.1,0.3,0.3,0.3h8.2c0.3,0,0-0.3,0,0v16.4c0,0.3,0.3,0,0,0h-8.2c-0.2,0-0.3,0.1-0.3,0.3v17
		c0,0.2,0.1,0.3,0.3,0.3h8.2c0.3,0,0-0.3,0,0v22.4v8.5C-622.7,600.5-622.6,600.7-622.5,600.7z"/>
</g>
<g id="p-4">
	<path class="st0" d="M-935.9,600.7h22.7c0.2,0,0.3-0.1,0.3-0.3v-8.2c0-0.3-0.3,0,0,0h16.4c0.3,0,0-0.3,0,0v8.2
		c0,0.2,0.1,0.3,0.3,0.3h17c0.2,0,0.3-0.1,0.3-0.3v-8.2c0-0.3-0.3,0,0,0h16.4c0.3,0,0-0.3,0,0v8.2c0,0.2,0.1,0.3,0.3,0.3h17
		c0.2,0,0.3-0.1,0.3-0.3v-8.2c0-0.3-0.3,0,0,0h16.4c0.3,0,0-0.3,0,0v8.2c0,0.2,0.1,0.3,0.3,0.3h17c0.2,0,0.3-0.1,0.3-0.3v-8.2
		c0-0.3-0.3,0,0,0h16.4c0.3,0,0-0.3,0,0v8.2c0,0.2,0.1,0.3,0.3,0.3h17c0.2,0,0.3-0.1,0.3-0.3v-8.2c0-0.3-0.3,0,0,0h16.4
		c0.3,0,0-0.3,0,0v8.2c0,0.2,0.1,0.3,0.3,0.3h17c0.2,0,0.3-0.1,0.3-0.3v-8.2c0-0.3-0.3,0,0,0h16.4c0.3,0,0-0.3,0,0v8.2
		c0,0.2,0.1,0.3,0.3,0.3h17c0.2,0,0.3-0.1,0.3-0.3v-8.2c0-0.3-0.3,0,0,0h16.4c0.3,0,0-0.3,0,0v8.2c0,0.2,0.1,0.3,0.3,0.3h22.7h8.5
		c0.2,0,0.3-0.1,0.3-0.3v-8.5v-22.7c0-0.2-0.1-0.3-0.3-0.3h-8.2c-0.3,0,0,0.3,0,0v-16.4c0-0.3-0.3,0,0,0h8.2c0.2,0,0.3-0.1,0.3-0.3
		v-17c0-0.2-0.1-0.3-0.3-0.3h-8.2c-0.3,0,0,0.3,0,0v-16.4c0-0.3-0.3,0,0,0h8.2c0.2,0,0.3-0.1,0.3-0.3v-17c0-0.2-0.1-0.3-0.3-0.3
		h-8.2c-0.3,0,0,0.3,0,0v-16.4c0-0.3-0.3,0,0,0h8.2c0.2,0,0.3-0.1,0.3-0.3v-17c0-0.2-0.1-0.3-0.3-0.3h-8.2c-0.3,0,0,0.3,0,0v-16.4
		c0-0.3-0.3,0,0,0h8.2c0.2,0,0.3-0.1,0.3-0.3v-17c0-0.2-0.1-0.3-0.3-0.3h-8.2c-0.3,0,0,0.3,0,0v-16.4c0-0.3-0.3,0,0,0h8.2
		c0.2,0,0.3-0.1,0.3-0.3v-17c0-0.2-0.1-0.3-0.3-0.3h-8.2c-0.3,0,0,0.3,0,0v-16.4c0-0.3-0.3,0,0,0h8.2c0.2,0,0.3-0.1,0.3-0.3v-17
		c0-0.2-0.1-0.3-0.3-0.3h-8.2c-0.3,0,0,0.3,0,0v-16.4c0-0.3-0.3,0,0,0h8.2c0.2,0,0.3-0.1,0.3-0.3v-22.7v-8.5c0-0.2-0.1-0.3-0.3-0.3
		h-8.5h-22.7c-0.2,0-0.3,0.1-0.3,0.3v8.2c0,0.3,0.3,0,0,0h-16.4c-0.3,0,0,0.3,0,0v-8.2c0-0.2-0.1-0.3-0.3-0.3h-17
		c-0.2,0-0.3,0.1-0.3,0.3v8.2c0,0.3,0.3,0,0,0h-16.4c-0.3,0,0,0.3,0,0v-8.2c0-0.2-0.1-0.3-0.3-0.3h-17c-0.2,0-0.3,0.1-0.3,0.3v8.2
		c0,0.3,0.3,0,0,0h-16.4c-0.3,0,0,0.3,0,0v-8.2c0-0.2-0.1-0.3-0.3-0.3h-17c-0.2,0-0.3,0.1-0.3,0.3v8.2c0,0.3,0.3,0,0,0h-16.4
		c-0.3,0,0,0.3,0,0v-8.2c0-0.2-0.1-0.3-0.3-0.3h-17c-0.2,0-0.3,0.1-0.3,0.3v8.2c0,0.3,0.3,0,0,0h-16.4c-0.3,0,0,0.3,0,0v-8.2
		c0-0.2-0.1-0.3-0.3-0.3h-17c-0.2,0-0.3,0.1-0.3,0.3v8.2c0,0.3,0.3,0,0,0h-16.4c-0.3,0,0,0.3,0,0v-8.2c0-0.2-0.1-0.3-0.3-0.3h-17
		c-0.2,0-0.3,0.1-0.3,0.3v8.2c0,0.3,0.3,0,0,0h-16.4c-0.3,0,0,0.3,0,0v-8.2c0-0.2-0.1-0.3-0.3-0.3h-22.7h-8.5
		c-0.2,0-0.3,0.1-0.3,0.3v8.5v22.7c0,0.2,0.1,0.3,0.3,0.3h8.2c0.3,0,0-0.3,0,0v16.4c0,0.3,0.3,0,0,0h-8.2c-0.2,0-0.3,0.1-0.3,0.3v17
		c0,0.2,0.1,0.3,0.3,0.3h8.2c0.3,0,0-0.3,0,0v16.4c0,0.3,0.3,0,0,0h-8.2c-0.2,0-0.3,0.1-0.3,0.3v17c0,0.2,0.1,0.3,0.3,0.3h8.2
		c0.3,0,0-0.3,0,0v16.4c0,0.3,0.3,0,0,0h-8.2c-0.2,0-0.3,0.1-0.3,0.3v17c0,0.2,0.1,0.3,0.3,0.3h8.2c0.3,0,0-0.3,0,0v16.4
		c0,0.3,0.3,0,0,0h-8.2c-0.2,0-0.3,0.1-0.3,0.3v17c0,0.2,0.1,0.3,0.3,0.3h8.2c0.3,0,0-0.3,0,0v16.4c0,0.3,0.3,0,0,0h-8.2
		c-0.2,0-0.3,0.1-0.3,0.3v17c0,0.2,0.1,0.3,0.3,0.3h8.2c0.3,0,0-0.3,0,0v16.4c0,0.3,0.3,0,0,0h-8.2c-0.2,0-0.3,0.1-0.3,0.3v17
		c0,0.2,0.1,0.3,0.3,0.3h8.2c0.3,0,0-0.3,0,0v16.4c0,0.3,0.3,0,0,0h-8.2c-0.2,0-0.3,0.1-0.3,0.3v22.7v8.5c0,0.2,0.1,0.3,0.3,0.3
		H-935.9z"/>
</g>
<g id="p-5">
	<path class="st0" d="M-622.5,287.5h22.4c0.3,0,0-0.3,0,0v8.2c0,0.2,0.1,0.3,0.3,0.3h17c0.2,0,0.3-0.1,0.3-0.3v-8.2c0-0.3-0.3,0,0,0
		h16.4c0.3,0,0-0.3,0,0v8.2c0,0.2,0.1,0.3,0.3,0.3h17c0.2,0,0.3-0.1,0.3-0.3v-8.2c0-0.3-0.3,0,0,0h16.4c0.3,0,0-0.3,0,0v8.2
		c0,0.2,0.1,0.3,0.3,0.3h17c0.2,0,0.3-0.1,0.3-0.3v-8.2c0-0.3-0.3,0,0,0h16.4c0.3,0,0-0.3,0,0v8.2c0,0.2,0.1,0.3,0.3,0.3h17
		c0.2,0,0.3-0.1,0.3-0.3v-8.2c0-0.3-0.3,0,0,0h16.4c0.3,0,0-0.3,0,0v8.2c0,0.2,0.1,0.3,0.3,0.3h17c0.2,0,0.3-0.1,0.3-0.3v-8.2
		c0-0.3-0.3,0,0,0h16.4c0.3,0,0-0.3,0,0v8.2c0,0.2,0.1,0.3,0.3,0.3h17c0.2,0,0.3-0.1,0.3-0.3v-8.2c0-0.3-0.3,0,0,0h16.4
		c0.3,0,0-0.3,0,0v8.2c0,0.2,0.1,0.3,0.3,0.3h17c0.2,0,0.3-0.1,0.3-0.3v-8.2c0-0.3-0.3,0,0,0h22.4c0.2,0,0.3-0.1,0.3-0.3v-22.4
		c0-0.3-0.3,0,0,0h8.2c0.2,0,0.3-0.1,0.3-0.3v-17c0-0.2-0.1-0.3-0.3-0.3h-8.2c-0.3,0,0,0.3,0,0v-16.4c0-0.3-0.3,0,0,0h8.2
		c0.2,0,0.3-0.1,0.3-0.3v-17c0-0.2-0.1-0.3-0.3-0.3h-8.2c-0.3,0,0,0.3,0,0v-16.4c0-0.3-0.3,0,0,0h8.2c0.2,0,0.3-0.1,0.3-0.3v-17
		c0-0.2-0.1-0.3-0.3-0.3h-8.2c-0.3,0,0,0.3,0,0v-16.4c0-0.3-0.3,0,0,0h8.2c0.2,0,0.3-0.1,0.3-0.3v-17c0-0.2-0.1-0.3-0.3-0.3h-8.2
		c-0.3,0,0,0.3,0,0v-16.4c0-0.3-0.3,0,0,0h8.2c0.2,0,0.3-0.1,0.3-0.3v-17c0-0.2-0.1-0.3-0.3-0.3h-8.2c-0.3,0,0,0.3,0,0V94.8
		c0-0.3-0.3,0,0,0h8.2c0.2,0,0.3-0.1,0.3-0.3v-17c0-0.2-0.1-0.3-0.3-0.3h-8.2c-0.3,0,0,0.3,0,0V60.8c0-0.3-0.3,0,0,0h8.2
		c0.2,0,0.3-0.1,0.3-0.3v-17c0-0.2-0.1-0.3-0.3-0.3h-8.2c-0.3,0,0,0.3,0,0V20.8c0-0.2-0.1-0.3-0.3-0.3h-22.4c-0.3,0,0,0.3,0,0v-8.2
		c0-0.2-0.1-0.3-0.3-0.3h-17c-0.2,0-0.3,0.1-0.3,0.3v8.2c0,0.3,0.3,0,0,0h-16.4c-0.3,0,0,0.3,0,0v-8.2c0-0.2-0.1-0.3-0.3-0.3h-17
		c-0.2,0-0.3,0.1-0.3,0.3v8.2c0,0.3,0.3,0,0,0h-16.4c-0.3,0,0,0.3,0,0v-8.2c0-0.2-0.1-0.3-0.3-0.3h-17c-0.2,0-0.3,0.1-0.3,0.3v8.2
		c0,0.3,0.3,0,0,0h-16.4c-0.3,0,0,0.3,0,0v-8.2c0-0.2-0.1-0.3-0.3-0.3h-17c-0.2,0-0.3,0.1-0.3,0.3v8.2c0,0.3,0.3,0,0,0h-16.4
		c-0.3,0,0,0.3,0,0v-8.2c0-0.2-0.1-0.3-0.3-0.3h-17c-0.2,0-0.3,0.1-0.3,0.3v8.2c0,0.3,0.3,0,0,0h-16.4c-0.3,0,0,0.3,0,0v-8.2
		c0-0.2-0.1-0.3-0.3-0.3h-17c-0.2,0-0.3,0.1-0.3,0.3v8.2c0,0.3,0.3,0,0,0h-16.4c-0.3,0,0,0.3,0,0v-8.2c0-0.2-0.1-0.3-0.3-0.3h-17
		c-0.2,0-0.3,0.1-0.3,0.3v8.2c0,0.3,0.3,0,0,0h-22.4c-0.2,0-0.3,0.1-0.3,0.3v22.4c0,0.3,0.3,0,0,0h-8.2c-0.2,0-0.3,0.1-0.3,0.3v17
		c0,0.2,0.1,0.3,0.3,0.3h8.2c0.3,0,0-0.3,0,0v16.4c0,0.3,0.3,0,0,0h-8.2c-0.2,0-0.3,0.1-0.3,0.3v17c0,0.2,0.1,0.3,0.3,0.3h8.2
		c0.3,0,0-0.3,0,0v16.4c0,0.3,0.3,0,0,0h-8.2c-0.2,0-0.3,0.1-0.3,0.3v17c0,0.2,0.1,0.3,0.3,0.3h8.2c0.3,0,0-0.3,0,0v16.4
		c0,0.3,0.3,0,0,0h-8.2c-0.2,0-0.3,0.1-0.3,0.3v17c0,0.2,0.1,0.3,0.3,0.3h8.2c0.3,0,0-0.3,0,0v16.4c0,0.3,0.3,0,0,0h-8.2
		c-0.2,0-0.3,0.1-0.3,0.3v17c0,0.2,0.1,0.3,0.3,0.3h8.2c0.3,0,0-0.3,0,0v16.4c0,0.3,0.3,0,0,0h-8.2c-0.2,0-0.3,0.1-0.3,0.3v17
		c0,0.2,0.1,0.3,0.3,0.3h8.2c0.3,0,0-0.3,0,0v16.4c0,0.3,0.3,0,0,0h-8.2c-0.2,0-0.3,0.1-0.3,0.3v17c0,0.2,0.1,0.3,0.3,0.3h8.2
		c0.3,0,0-0.3,0,0v22.4C-622.7,287.4-622.6,287.5-622.5,287.5z"/>
</g>
<g id="p-6">
	<path class="st0" d="M-309,287.5h22.4c0.3,0,0-0.3,0,0v8.2c0,0.2,0.1,0.3,0.3,0.3h17c0.2,0,0.3-0.1,0.3-0.3v-8.2c0-0.3-0.3,0,0,0
		h16.4c0.3,0,0-0.3,0,0v8.2c0,0.2,0.1,0.3,0.3,0.3h17c0.2,0,0.3-0.1,0.3-0.3v-8.2c0-0.3-0.3,0,0,0h16.4c0.3,0,0-0.3,0,0v8.2
		c0,0.2,0.1,0.3,0.3,0.3h17c0.2,0,0.3-0.1,0.3-0.3v-8.2c0-0.3-0.3,0,0,0h16.4c0.3,0,0-0.3,0,0v8.2c0,0.2,0.1,0.3,0.3,0.3h17
		c0.2,0,0.3-0.1,0.3-0.3v-8.2c0-0.3-0.3,0,0,0h16.4c0.3,0,0-0.3,0,0v8.2c0,0.2,0.1,0.3,0.3,0.3h17c0.2,0,0.3-0.1,0.3-0.3v-8.2
		c0-0.3-0.3,0,0,0h16.4c0.3,0,0-0.3,0,0v8.2c0,0.2,0.1,0.3,0.3,0.3h17c0.2,0,0.3-0.1,0.3-0.3v-8.2c0-0.3-0.3,0,0,0h16.4
		c0.3,0,0-0.3,0,0v8.2c0,0.2,0.1,0.3,0.3,0.3h17c0.2,0,0.3-0.1,0.3-0.3v-8.2c0-0.3-0.3,0,0,0h22.4c0.2,0,0.3-0.1,0.3-0.3v-22.4
		c0-0.3-0.3,0,0,0h8.2c0.2,0,0.3-0.1,0.3-0.3v-17c0-0.2-0.1-0.3-0.3-0.3h-8.2c-0.3,0,0,0.3,0,0v-16.4c0-0.3-0.3,0,0,0h8.2
		c0.2,0,0.3-0.1,0.3-0.3v-17c0-0.2-0.1-0.3-0.3-0.3h-8.2c-0.3,0,0,0.3,0,0v-16.4c0-0.3-0.3,0,0,0h8.2c0.2,0,0.3-0.1,0.3-0.3v-17
		c0-0.2-0.1-0.3-0.3-0.3h-8.2c-0.3,0,0,0.3,0,0v-16.4c0-0.3-0.3,0,0,0h8.2c0.2,0,0.3-0.1,0.3-0.3v-17c0-0.2-0.1-0.3-0.3-0.3h-8.2
		c-0.3,0,0,0.3,0,0v-16.4c0-0.3-0.3,0,0,0h8.2c0.2,0,0.3-0.1,0.3-0.3v-17c0-0.2-0.1-0.3-0.3-0.3h-8.2c-0.3,0,0,0.3,0,0V94.8
		c0-0.3-0.3,0,0,0h8.2c0.2,0,0.3-0.1,0.3-0.3v-17c0-0.2-0.1-0.3-0.3-0.3h-8.2c-0.3,0,0,0.3,0,0V60.8c0-0.3-0.3,0,0,0h8.2
		c0.2,0,0.3-0.1,0.3-0.3v-17c0-0.2-0.1-0.3-0.3-0.3h-8.2c-0.3,0,0,0.3,0,0V20.8c0-0.2-0.1-0.3-0.3-0.3H-65c-0.3,0,0,0.3,0,0v-8.2
		c0-0.2-0.1-0.3-0.3-0.3h-17c-0.2,0-0.3,0.1-0.3,0.3v8.2c0,0.3,0.3,0,0,0H-99c-0.3,0,0,0.3,0,0v-8.2c0-0.2-0.1-0.3-0.3-0.3h-17
		c-0.2,0-0.3,0.1-0.3,0.3v8.2c0,0.3,0.3,0,0,0H-133c-0.3,0,0,0.3,0,0v-8.2c0-0.2-0.1-0.3-0.3-0.3h-17c-0.2,0-0.3,0.1-0.3,0.3v8.2
		c0,0.3,0.3,0,0,0H-167c-0.3,0,0,0.3,0,0v-8.2c0-0.2-0.1-0.3-0.3-0.3h-17c-0.2,0-0.3,0.1-0.3,0.3v8.2c0,0.3,0.3,0,0,0H-201
		c-0.3,0,0,0.3,0,0v-8.2c0-0.2-0.1-0.3-0.3-0.3h-17c-0.2,0-0.3,0.1-0.3,0.3v8.2c0,0.3,0.3,0,0,0h-16.4c-0.3,0,0,0.3,0,0v-8.2
		c0-0.2-0.1-0.3-0.3-0.3h-17c-0.2,0-0.3,0.1-0.3,0.3v8.2c0,0.3,0.3,0,0,0h-16.4c-0.3,0,0,0.3,0,0v-8.2c0-0.2-0.1-0.3-0.3-0.3h-17
		c-0.2,0-0.3,0.1-0.3,0.3v8.2c0,0.3,0.3,0,0,0H-309c-0.2,0-0.3,0.1-0.3,0.3v22.4c0,0.3,0.3,0,0,0h-8.2c-0.2,0-0.3,0.1-0.3,0.3v17
		c0,0.2,0.1,0.3,0.3,0.3h8.2c0.3,0,0-0.3,0,0v16.4c0,0.3,0.3,0,0,0h-8.2c-0.2,0-0.3,0.1-0.3,0.3v17c0,0.2,0.1,0.3,0.3,0.3h8.2
		c0.3,0,0-0.3,0,0v16.4c0,0.3,0.3,0,0,0h-8.2c-0.2,0-0.3,0.1-0.3,0.3v17c0,0.2,0.1,0.3,0.3,0.3h8.2c0.3,0,0-0.3,0,0v16.4
		c0,0.3,0.3,0,0,0h-8.2c-0.2,0-0.3,0.1-0.3,0.3v17c0,0.2,0.1,0.3,0.3,0.3h8.2c0.3,0,0-0.3,0,0v16.4c0,0.3,0.3,0,0,0h-8.2
		c-0.2,0-0.3,0.1-0.3,0.3v17c0,0.2,0.1,0.3,0.3,0.3h8.2c0.3,0,0-0.3,0,0v16.4c0,0.3,0.3,0,0,0h-8.2c-0.2,0-0.3,0.1-0.3,0.3v17
		c0,0.2,0.1,0.3,0.3,0.3h8.2c0.3,0,0-0.3,0,0v16.4c0,0.3,0.3,0,0,0h-8.2c-0.2,0-0.3,0.1-0.3,0.3v17c0,0.2,0.1,0.3,0.3,0.3h8.2
		c0.3,0,0-0.3,0,0v22.4C-309.3,287.4-309.2,287.5-309,287.5z"/>
</g>
<g id="p-3_1_">
	<path class="st0" d="M24.1,590.7h425.2c0.2,0,0.3-0.1,0.3-0.3V306.9c0-0.2-0.1-0.3-0.3-0.3H313.2c-0.2,0-0.3,0.1-0.3,0.3v141.4
		c0,0.3,0.3,0,0,0H305c-0.3,0,0,0.3,0,0V306.9c0-0.2-0.1-0.3-0.3-0.3H168.7c-0.2,0-0.3,0.1-0.3,0.3v141.4c0,0.3,0.3,0,0,0h-7.9
		c-0.3,0,0,0.3,0,0V306.9c0-0.2-0.1-0.3-0.3-0.3H24.1c-0.2,0-0.3,0.1-0.3,0.3v283.5C23.8,590.5,23.9,590.7,24.1,590.7z"/>
</g>
<g id="p-4_1_">
	<path class="st0" d="M24.1,302.4h425.2c0.2,0,0.3-0.1,0.3-0.3V18.6c0-0.2-0.1-0.3-0.3-0.3H313.2c-0.2,0-0.3,0.1-0.3,0.3v141.4
		c0,0.3,0.3,0,0,0H305c-0.3,0,0,0.3,0,0V18.6c0-0.2-0.1-0.3-0.3-0.3H168.7c-0.2,0-0.3,0.1-0.3,0.3v141.4c0,0.3,0.3,0,0,0h-7.9
		c-0.3,0,0,0.3,0,0V18.6c0-0.2-0.1-0.3-0.3-0.3H24.1c-0.2,0-0.3,0.1-0.3,0.3v283.5C23.8,302.2,23.9,302.4,24.1,302.4z"/>
</g>
</svg>
